<?xml version="1.0" encoding="utf-8"?>
<svg x="0pt" y="0pt" width="100pt" height="100pt" viewBox="0 0 100 100" xmlns="http://www.w3.org/2000/svg" xmlns:xlink="http://www.w3.org/1999/xlink">
  <g id="1">
    <title>Layer 1</title>
    <defs>
      <title>Shape 1</title>
      <g id="2">
        <defs>
          <path id="3" d="M50.0605,3.41733 C62.4804,3.29008,74.6967,8.50745,83.1972,17.2879 C92.4103,26.781,96.8133,38.2083,96.5842,51.4426 C96.0498,63.8116,91.4687,74.4245,82.6882,83.1795 C74.9512,90.9165,63.0149,96.9738,48.559,96.5665 C37.7679,96.2611,25.8825,91.96,16.7203,82.6196 C8.83057,74.5772,2.95149,62.7172,3.43504,48.5667 C3.84225,36.1977,8.52516,25.5594,17.2802,16.8044 C25.628,8.482,37.5643,3.26463,50.0605,3.41733 z"/>
        </defs>
        <use xlink:href="#3" style="fill:#261ddf;fill-opacity:1;fill-rule:evenodd;opacity:1;stroke:none;"/>
      </g>
    </defs>
    <use xlink:href="#2"/>
    <defs>
      <title>Shape 2</title>
      <g id="4">
        <defs>
          <path id="5" d="M50.0096,75.8752 C35.4264,75.7988,24.1264,64.0661,24.1264,49.9665 C24.1264,35.9686,35.3501,24.0832,50.0096,24.0832 C64.5419,24.0832,75.9183,35.8159,75.8929,50.0428 C75.8675,64.1934,64.5165,75.7988,50.0096,75.8752 z"/>
        </defs>
        <use xlink:href="#5" style="fill:#010208;fill-opacity:1;fill-rule:evenodd;opacity:1;stroke:none;"/>
      </g>
    </defs>
    <use xlink:href="#4"/>
  </g>
</svg>
