<?xml version="1.0" encoding="utf-8"?>
<svg x="0pt" y="83.6124pt" width="1000pt" height="289.958pt" viewBox="0 83.6124 1000 289.958" xmlns="http://www.w3.org/2000/svg" xmlns:xlink="http://www.w3.org/1999/xlink">
  <g id="1">
    <title>Layer 1</title>
    <clipPath id="3">
      <use xlink:href="#2"/>
      <path id="2" d="M-72.0171,-51.5766 C-72.0171,-51.5766,1072.02,-51.5766,1072.02,-51.5766 C1072.02,-51.5766,1072.02,637.186,1072.02,637.186 C1072.02,637.186,-72.0171,637.186,-72.0171,637.186 C-72.0171,637.186,-72.0171,-51.5766,-72.0171,-51.5766 z"/>
    </clipPath>
    <g id="4" style="clip-path:url(#3);">
      <title>Clipping Group</title>
      <g id="5">
        <title>Group</title>
        <defs>
          <title>Shape 1</title>
          <g id="6">
            <defs>
              <path id="7" d="M617.434,102.844 C651.046,102.5,684.106,116.619,707.111,140.382 C732.044,166.072,743.96,196.998,743.34,232.813 C741.893,266.287,729.496,295.009,705.733,318.702 C684.795,339.641,652.492,356.033,613.37,354.931 C584.167,354.105,552.002,342.464,527.206,317.187 C505.855,295.422,489.944,263.326,491.253,225.03 C492.355,191.557,505.028,162.766,528.721,139.073 C551.313,116.55,583.616,102.431,617.434,102.844 z"/>
            </defs>
            <use xlink:href="#7" style="fill:#261ee0;fill-opacity:1;fill-rule:evenodd;opacity:1;stroke:none;"/>
          </g>
        </defs>
        <use xlink:href="#6"/>
        <defs>
          <title>Shape 2</title>
          <g id="8">
            <defs>
              <path id="9" d="M617.296,298.935 C577.83,298.728,547.249,266.976,547.249,228.819 C547.249,190.937,577.624,158.771,617.296,158.771 C656.625,158.771,687.412,190.523,687.343,229.025 C687.275,267.32,656.556,298.728,617.296,298.935 z"/>
            </defs>
            <use xlink:href="#9" style="fill:#010208;fill-opacity:1;fill-rule:evenodd;opacity:1;stroke:none;"/>
          </g>
        </defs>
        <use xlink:href="#8"/>
        <defs>
          <title>Shape 3</title>
          <g id="10">
            <defs>
              <path id="11" d="M82.9544,303.136 C82.9544,302.792,82.8855,302.447,82.8855,302.103 C82.8855,253.132,82.8855,204.161,82.8855,155.259 C82.8855,154.914,82.8855,154.57,82.8855,154.088 C83.2299,154.088,83.5743,154.088,83.8498,154.088 C92.666,154.088,101.482,154.088,110.298,154.088 C110.987,154.088,111.331,154.295,111.676,154.846 C122.627,171.307,133.578,187.768,144.53,204.161 C147.491,208.569,150.384,212.977,153.346,217.385 C153.553,217.661,153.69,217.867,153.966,218.281 C154.241,217.936,154.448,217.592,154.655,217.316 C166.501,199.477,178.417,181.638,190.264,163.799 C192.261,160.769,194.327,157.738,196.325,154.708 C196.669,154.226,197.013,154.019,197.564,154.019 C206.449,154.019,215.335,154.019,224.22,154.019 C224.495,154.019,224.702,154.019,225.046,154.088 C225.046,154.363,225.115,154.639,225.115,154.846 C225.115,155.19,225.115,155.465,225.115,155.81 C225.115,204.436,225.115,253.063,225.115,301.69 C225.115,302.172,225.115,302.654,225.115,303.136 C217.056,303.136,208.998,303.136,200.939,303.136 C200.939,302.723,201.008,302.241,201.008,301.827 C201.008,263.945,201.008,226.132,201.008,188.25 C201.008,188.044,201.008,187.768,201.008,187.562 C201.008,187.355,200.939,187.148,200.871,186.873 C200.595,187.286,200.388,187.493,200.251,187.768 C185.442,210.153,170.634,232.469,155.825,254.854 C154.93,256.231,155.412,255.887,153.69,256.025 C153.002,256.094,152.519,255.818,152.175,255.198 C145.425,244.936,138.675,234.673,131.925,224.479 C123.867,212.288,115.808,200.028,107.75,187.837 C107.543,187.562,107.337,187.286,107.199,187.011 C107.13,187.011,107.061,187.08,106.992,187.08 C106.992,187.424,106.992,187.837,106.992,188.182 C106.992,215.319,106.992,242.456,106.992,269.662 C106.992,280.82,106.992,292.047,106.992,303.205 C98.9337,303.136,90.9441,303.136,82.9544,303.136 z"/>
            </defs>
            <use xlink:href="#11" style="fill:#000000;fill-opacity:1;fill-rule:evenodd;opacity:1;stroke:none;"/>
          </g>
        </defs>
        <use xlink:href="#10"/>
        <defs>
          <title>Shape 4</title>
          <g id="12">
            <defs>
              <path id="13" d="M397.65,303.136 C397.65,302.792,397.581,302.447,397.581,302.103 C397.581,253.132,397.581,204.161,397.581,155.19 C397.581,154.846,397.581,154.501,397.581,154.088 C397.925,154.088,398.201,154.019,398.477,154.019 C419.277,154.019,440.078,153.95,460.809,154.019 C468.592,154.019,476.238,155.397,483.401,158.496 C496.694,164.282,505.028,174.269,508.265,188.388 C510.331,197.273,510.331,206.227,507.99,215.112 C504.684,227.854,496.901,236.808,484.916,242.249 C481.266,243.902,477.409,245.073,473.414,245.9 C473.069,245.969,472.794,246.038,472.45,246.107 C472.381,246.107,472.381,246.175,472.243,246.244 C472.45,246.52,472.656,246.795,472.863,247.071 C487.258,265.461,501.584,283.782,515.979,302.172 C516.186,302.447,516.461,302.792,516.668,303.136 C506.75,303.136,496.832,303.136,486.914,303.136 C486.776,302.861,486.707,302.585,486.5,302.31 C472.656,284.264,458.812,266.15,444.968,248.104 C444.624,247.622,444.279,247.484,443.659,247.484 C436.565,247.484,429.471,247.484,422.376,247.484 C422.101,247.484,421.825,247.553,421.481,247.553 C421.481,266.15,421.481,284.608,421.481,303.136 C413.629,303.136,405.64,303.136,397.65,303.136 z M421.688,226.201 C422.17,226.201,422.583,226.201,422.928,226.201 C433.603,226.201,444.21,226.201,454.886,226.201 C456.952,226.201,459.019,226.132,461.085,225.995 C464.735,225.719,468.317,224.962,471.692,223.515 C478.442,220.622,482.85,215.732,484.71,208.569 C485.674,204.781,485.812,200.993,485.192,197.136 C483.952,188.802,479.475,183.016,471.761,179.71 C467.766,177.988,463.496,177.299,459.156,177.093 C457.572,177.024,455.988,177.024,454.335,177.024 C443.866,177.024,433.328,177.024,422.859,177.024 C422.445,177.024,422.032,177.024,421.619,177.093 C421.688,193.485,421.688,209.74,421.688,226.201 z"/>
            </defs>
            <use xlink:href="#13" style="fill:#000000;fill-opacity:1;fill-rule:evenodd;opacity:1;stroke:none;"/>
          </g>
        </defs>
        <use xlink:href="#12"/>
        <defs>
          <title>Shape 5</title>
          <g id="14">
            <defs>
              <path id="15" d="M875.238,303.136 C875.238,302.723,875.238,302.378,875.238,301.965 C875.238,253.063,875.238,204.23,875.238,155.397 C875.238,154.983,875.238,154.57,875.238,154.019 C875.72,154.019,876.133,154.019,876.547,154.019 C892.25,154.019,907.954,154.019,923.658,154.019 C939.431,154.019,955.203,154.019,970.976,154.019 C971.527,154.019,972.078,154.019,972.629,154.019 C972.629,161.595,972.629,169.241,972.629,176.886 C972.216,176.955,971.733,177.024,971.32,177.024 C947.833,177.024,924.347,177.024,900.929,177.024 C900.653,177.024,900.378,177.024,900.033,177.024 C899.827,177.024,899.62,177.093,899.413,177.161 C899.413,189.972,899.413,202.715,899.413,215.594 C901.755,215.594,903.959,215.594,906.232,215.594 C908.505,215.594,910.709,215.594,912.982,215.594 C915.255,215.594,917.528,215.594,919.801,215.594 C922.074,215.594,924.347,215.594,926.62,215.594 C928.893,215.594,931.096,215.594,933.369,215.594 C935.642,215.594,937.915,215.594,940.188,215.594 C942.461,215.594,944.734,215.594,947.007,215.594 C949.28,215.594,951.553,215.594,953.826,215.594 C956.03,215.594,958.303,215.594,960.576,215.594 C962.849,215.594,965.053,215.594,967.326,215.594 C967.532,217.179,967.463,237.841,967.257,238.599 C944.734,238.599,922.143,238.599,899.551,238.599 C899.551,252.443,899.551,266.218,899.551,280.131 C900.033,280.131,900.447,280.131,900.791,280.131 C924.278,280.131,947.834,280.131,971.32,280.131 C971.803,280.131,972.285,280.131,972.767,280.2 C972.767,287.846,972.767,295.56,972.767,303.205 C940.119,303.136,907.679,303.136,875.238,303.136 z"/>
            </defs>
            <use xlink:href="#15" style="fill:#000000;fill-opacity:1;fill-rule:evenodd;opacity:1;stroke:none;"/>
          </g>
        </defs>
        <use xlink:href="#14"/>
        <defs>
          <title>Shape 6</title>
          <g id="16">
            <defs>
              <path id="17" d="M257.969,303.136 C257.969,302.792,257.9,302.447,257.9,302.103 C257.9,253.132,257.9,204.161,257.9,155.19 C257.9,154.846,257.9,154.501,257.9,154.088 C258.244,154.088,258.52,154.019,258.795,154.019 C279.458,154.019,300.121,153.95,320.784,154.019 C329.256,154.019,337.521,155.603,345.235,159.254 C358.253,165.315,366.38,175.44,369.824,189.353 C371.27,195.345,371.684,201.406,371.201,207.536 C370.719,214.079,369.204,220.416,366.311,226.339 C361.077,236.946,352.812,244.247,341.791,248.517 C337.108,250.377,332.218,251.479,327.19,252.03 C324.09,252.374,320.991,252.512,317.891,252.512 C306.32,252.512,294.818,252.512,283.247,252.512 C282.833,252.512,282.42,252.512,281.869,252.512 C281.869,269.456,281.869,286.261,281.869,303.067 C273.948,303.136,265.959,303.136,257.969,303.136 z M282.007,177.024 C282.007,194.656,282.007,212.082,282.007,229.576 C282.282,229.576,282.558,229.645,282.833,229.645 C294.887,229.645,306.94,229.645,318.993,229.645 C322.713,229.645,326.432,229.094,330.013,227.923 C338.072,225.306,343.444,220.002,345.786,211.806 C347.164,206.916,347.233,201.957,346.337,196.998 C345.717,193.623,344.478,190.455,342.549,187.631 C339.518,183.291,335.386,180.468,330.427,178.814 C326.294,177.437,322.093,177.024,317.754,177.024 C306.182,177.024,294.68,177.024,283.109,177.024 C282.764,177.024,282.42,177.024,282.007,177.024 z"/>
            </defs>
            <use xlink:href="#17" style="fill:#000000;fill-opacity:1;fill-rule:evenodd;opacity:1;stroke:none;"/>
          </g>
        </defs>
        <use xlink:href="#16"/>
        <defs>
          <title>Shape 7</title>
          <g id="18">
            <defs>
              <path id="19" d="M771.304,303.136 C771.097,302.447,770.89,301.759,770.684,301.001 C754.016,252.443,737.348,203.885,720.748,155.328 C720.611,154.914,720.473,154.57,720.335,154.088 C728.876,154.088,737.348,154.088,745.888,154.088 C759.457,194.381,773.025,234.742,786.663,275.103 C786.732,275.103,786.801,275.103,786.87,275.103 C800.507,234.742,814.145,194.449,827.851,154.157 C836.392,154.157,844.863,154.157,853.335,154.157 C853.197,154.501,853.128,154.846,853.06,155.121 C841.695,188.182,830.262,221.311,818.897,254.372 C813.387,270.42,807.877,286.399,802.367,302.378 C802.298,302.654,802.16,302.929,802.091,303.205 C791.76,303.136,781.497,303.136,771.304,303.136 z"/>
            </defs>
            <use xlink:href="#19" style="fill:#000000;fill-opacity:1;fill-rule:evenodd;opacity:1;stroke:none;"/>
          </g>
        </defs>
        <use xlink:href="#18"/>
        <defs>
          <title>Shape 8</title>
          <g id="20">
            <defs>
              <path id="21" d="M26.8892,154.019 C34.8788,154.019,42.9373,154.019,50.9958,154.019 C51.0647,154.226,51.0647,154.501,51.0647,154.708 C51.0647,155.052,51.0647,155.328,51.0647,155.672 C51.0647,204.368,51.0647,253.132,51.0647,301.827 C51.0647,302.31,51.0647,302.723,50.9958,303.205 C42.9373,303.205,34.8788,303.205,26.8203,303.205 C26.8892,253.407,26.8892,203.748,26.8892,154.019 z"/>
            </defs>
            <use xlink:href="#21" style="fill:#000000;fill-opacity:1;fill-rule:evenodd;opacity:1;stroke:none;"/>
          </g>
        </defs>
        <use xlink:href="#20"/>
      </g>
    </g>
    <clipPath id="23">
      <use xlink:href="#22"/>
      <path id="22" d="M-72.0171,-51.5766 C-72.0171,-51.5766,1072.02,-51.5766,1072.02,-51.5766 C1072.02,-51.5766,1072.02,637.186,1072.02,637.186 C1072.02,637.186,-72.0171,637.186,-72.0171,637.186 C-72.0171,637.186,-72.0171,-51.5766,-72.0171,-51.5766 z"/>
    </clipPath>
    <g id="24" style="clip-path:url(#23);"/>
  </g>
</svg>
